<?xml version="1.0" encoding="UTF-8" standalone="no"?>
<!DOCTYPE svg PUBLIC "-//W3C//DTD SVG 1.1//EN"
 "http://www.w3.org/Graphics/SVG/1.1/DTD/svg11.dtd">
<!-- Generated by graphviz version 2.38.0 (20140413.2041)
 -->
<!-- Title: QState Pages: 1 -->
<svg width="1773pt" height="566pt"
 viewBox="0.00 0.00 1772.69 566.00" xmlns="http://www.w3.org/2000/svg" xmlns:xlink="http://www.w3.org/1999/xlink">
<g id="graph0" class="graph" transform="scale(1 1) rotate(0) translate(4 562)">
<title>QState</title>
<polygon fill="white" stroke="none" points="-4,4 -4,-562 1768.69,-562 1768.69,4 -4,4"/>
<!-- LOCAL_NEVER -->
<g id="node1" class="node"><title>LOCAL_NEVER</title>
<ellipse fill="none" stroke="black" cx="428" cy="-540" rx="75.2868" ry="18"/>
<text text-anchor="middle" x="428" y="-536.3" font-family="Times New Roman,serif" font-size="14.00">LOCAL_NEVER</text>
</g>
<!-- LOCAL_NO -->
<g id="node2" class="node"><title>LOCAL_NO</title>
<ellipse fill="none" stroke="black" cx="428" cy="-453" rx="59.2899" ry="18"/>
<text text-anchor="middle" x="428" y="-449.3" font-family="Times New Roman,serif" font-size="14.00">LOCAL_NO</text>
</g>
<!-- LOCAL_NEVER&#45;&gt;LOCAL_NO -->
<g id="edge1" class="edge"><title>LOCAL_NEVER&#45;&gt;LOCAL_NO</title>
<path fill="none" stroke="black" d="M428,-521.799C428,-510.163 428,-494.548 428,-481.237"/>
<polygon fill="black" stroke="black" points="431.5,-481.175 428,-471.175 424.5,-481.175 431.5,-481.175"/>
<text text-anchor="middle" x="447" y="-492.8" font-family="Times New Roman,serif" font-size="14.00">Enable</text>
</g>
<!-- LOCAL_WANT_YES -->
<g id="node6" class="node"><title>LOCAL_WANT_YES</title>
<ellipse fill="none" stroke="black" cx="306" cy="-366" rx="94.7833" ry="18"/>
<text text-anchor="middle" x="306" y="-362.3" font-family="Times New Roman,serif" font-size="14.00">LOCAL_WANT_YES</text>
</g>
<!-- LOCAL_NO&#45;&gt;LOCAL_WANT_YES -->
<g id="edge2" class="edge"><title>LOCAL_NO&#45;&gt;LOCAL_WANT_YES</title>
<path fill="none" stroke="green" d="M375.627,-444.463C356.967,-439.425 337.105,-431.021 323,-417 316.805,-410.842 312.867,-402.343 310.363,-394.099"/>
<polygon fill="green" stroke="green" points="313.751,-393.218 307.966,-384.342 306.953,-394.888 313.751,-393.218"/>
<text text-anchor="middle" x="349" y="-405.8" font-family="Times New Roman,serif" font-size="14.00">SendWill</text>
</g>
<!-- LOCAL_NO&#45;&gt;LOCAL_WANT_YES -->
<g id="edge4" class="edge"><title>LOCAL_NO&#45;&gt;LOCAL_WANT_YES</title>
<path fill="none" stroke="blue" d="M412.809,-435.4C402.737,-424.992 388.866,-411.75 375,-402 367.496,-396.723 359.085,-391.771 350.784,-387.345"/>
<polygon fill="blue" stroke="blue" points="352.363,-384.222 341.87,-382.76 349.161,-390.446 352.363,-384.222"/>
<text text-anchor="middle" x="416.5" y="-405.8" font-family="Times New Roman,serif" font-size="14.00">RecvDo</text>
</g>
<!-- LOCAL_Ignore -->
<g id="node8" class="node"><title>LOCAL_Ignore</title>
<ellipse fill="none" stroke="black" cx="716" cy="-192" rx="69.5877" ry="18"/>
<text text-anchor="middle" x="716" y="-188.3" font-family="Times New Roman,serif" font-size="14.00">LOCAL_Ignore</text>
</g>
<!-- LOCAL_NO&#45;&gt;LOCAL_Ignore -->
<g id="edge5" class="edge"><title>LOCAL_NO&#45;&gt;LOCAL_Ignore</title>
<path fill="none" stroke="purple" stroke-dasharray="5,2" d="M467.486,-439.53C500.548,-428.036 548.109,-408.985 585,-384 658.64,-334.127 692.819,-325.109 727,-243 730.04,-235.697 729.637,-227.429 727.817,-219.749"/>
<polygon fill="purple" stroke="purple" points="731.127,-218.606 724.779,-210.123 724.451,-220.712 731.127,-218.606"/>
<text text-anchor="middle" x="711" y="-318.8" font-family="Times New Roman,serif" font-size="14.00">RecvDont</text>
</g>
<!-- LOCAL_Error -->
<g id="node9" class="node"><title>LOCAL_Error</title>
<ellipse fill="none" stroke="black" cx="454" cy="-18" rx="64.9885" ry="18"/>
<text text-anchor="middle" x="454" y="-14.3" font-family="Times New Roman,serif" font-size="14.00">LOCAL_Error</text>
</g>
<!-- LOCAL_NO&#45;&gt;LOCAL_Error -->
<g id="edge3" class="edge"><title>LOCAL_NO&#45;&gt;LOCAL_Error</title>
<path fill="none" stroke="red" stroke-dasharray="5,2" d="M487.045,-451.109C595.175,-447.865 814,-433.132 814,-367 814,-367 814,-367 814,-104 814,-45.8907 634.091,-27.4611 528.638,-21.6497"/>
<polygon fill="red" stroke="red" points="528.531,-18.1393 518.361,-21.1102 528.164,-25.1297 528.531,-18.1393"/>
<text text-anchor="middle" x="844.5" y="-231.8" font-family="Times New Roman,serif" font-size="14.00">SendWont</text>
</g>
<!-- LOCAL_WANT_NO -->
<g id="node3" class="node"><title>LOCAL_WANT_NO</title>
<ellipse fill="none" stroke="black" cx="449" cy="-192" rx="90.9839" ry="18"/>
<text text-anchor="middle" x="449" y="-188.3" font-family="Times New Roman,serif" font-size="14.00">LOCAL_WANT_NO</text>
</g>
<!-- LOCAL_WANT_NO&#45;&gt;LOCAL_NO -->
<g id="edge9" class="edge"><title>LOCAL_WANT_NO&#45;&gt;LOCAL_NO</title>
<path fill="none" stroke="purple" d="M450.941,-210.149C454.73,-248.047 461.312,-341.552 444,-417 443.342,-419.869 442.436,-422.788 441.387,-425.654"/>
<polygon fill="purple" stroke="purple" points="438.088,-424.471 437.425,-435.045 444.537,-427.192 438.088,-424.471"/>
<text text-anchor="middle" x="485" y="-318.8" font-family="Times New Roman,serif" font-size="14.00">RecvDont</text>
</g>
<!-- LOCAL_WANT_NO_OPPOSITE -->
<g id="node4" class="node"><title>LOCAL_WANT_NO_OPPOSITE</title>
<ellipse fill="none" stroke="black" cx="338" cy="-105" rx="139.976" ry="18"/>
<text text-anchor="middle" x="338" y="-101.3" font-family="Times New Roman,serif" font-size="14.00">LOCAL_WANT_NO_OPPOSITE</text>
</g>
<!-- LOCAL_WANT_NO&#45;&gt;LOCAL_WANT_NO_OPPOSITE -->
<g id="edge6" class="edge"><title>LOCAL_WANT_NO&#45;&gt;LOCAL_WANT_NO_OPPOSITE</title>
<path fill="none" stroke="green" d="M444.258,-173.767C440.55,-163.108 434.415,-149.822 425,-141 418.767,-135.159 411.434,-130.243 403.714,-126.116"/>
<polygon fill="green" stroke="green" points="405.038,-122.868 394.516,-121.628 401.968,-129.159 405.038,-122.868"/>
<text text-anchor="middle" x="462" y="-144.8" font-family="Times New Roman,serif" font-size="14.00">SendWill</text>
</g>
<!-- LOCAL_WANT_NO&#45;&gt;LOCAL_Error -->
<g id="edge7" class="edge"><title>LOCAL_WANT_NO&#45;&gt;LOCAL_Error</title>
<path fill="none" stroke="red" stroke-dasharray="5,2" d="M476.448,-174.721C482.705,-169.581 488.528,-163.302 492,-156 509.501,-119.19 488.614,-72.866 471.58,-44.6171"/>
<polygon fill="red" stroke="red" points="474.522,-42.721 466.239,-36.1155 468.595,-46.445 474.522,-42.721"/>
<text text-anchor="middle" x="529.5" y="-101.3" font-family="Times New Roman,serif" font-size="14.00">SendWont</text>
</g>
<!-- LOCAL_WANT_NO&#45;&gt;LOCAL_Error -->
<g id="edge8" class="edge"><title>LOCAL_WANT_NO&#45;&gt;LOCAL_Error</title>
<path fill="none" stroke="blue" stroke-dasharray="5,2" d="M495.529,-176.376C520.622,-165.835 549.372,-148.835 564,-123 571.883,-109.077 571.791,-100.975 564,-87 550.933,-63.5595 526.087,-47.1838 503.31,-36.3857"/>
<polygon fill="blue" stroke="blue" points="504.607,-33.1315 494.05,-32.2363 501.745,-39.5195 504.607,-33.1315"/>
<text text-anchor="middle" x="593.5" y="-101.3" font-family="Times New Roman,serif" font-size="14.00">RecvDo</text>
</g>
<!-- LOCAL_WANT_NO_OPPOSITE&#45;&gt;LOCAL_WANT_NO -->
<g id="edge11" class="edge"><title>LOCAL_WANT_NO_OPPOSITE&#45;&gt;LOCAL_WANT_NO</title>
<path fill="none" stroke="red" d="M341.984,-123.244C345.239,-133.908 350.837,-147.195 360,-156 367.273,-162.989 376.106,-168.632 385.349,-173.174"/>
<polygon fill="red" stroke="red" points="384.129,-176.462 394.686,-177.358 386.992,-170.075 384.129,-176.462"/>
<text text-anchor="middle" x="390.5" y="-144.8" font-family="Times New Roman,serif" font-size="14.00">SendWont</text>
</g>
<!-- LOCAL_YES -->
<g id="node5" class="node"><title>LOCAL_YES</title>
<ellipse fill="none" stroke="black" cx="561" cy="-279" rx="63.0888" ry="18"/>
<text text-anchor="middle" x="561" y="-275.3" font-family="Times New Roman,serif" font-size="14.00">LOCAL_YES</text>
</g>
<!-- LOCAL_WANT_NO_OPPOSITE&#45;&gt;LOCAL_YES -->
<g id="edge10" class="edge"><title>LOCAL_WANT_NO_OPPOSITE&#45;&gt;LOCAL_YES</title>
<path fill="none" stroke="green" d="M452.646,-115.3C489.898,-124.56 527.216,-141.921 549,-174 564.268,-196.484 565.794,-228.184 564.422,-250.664"/>
<polygon fill="green" stroke="green" points="560.914,-250.619 563.564,-260.877 567.889,-251.206 560.914,-250.619"/>
<text text-anchor="middle" x="589" y="-188.3" font-family="Times New Roman,serif" font-size="14.00">SendWill</text>
</g>
<!-- LOCAL_WANT_NO_OPPOSITE&#45;&gt;LOCAL_WANT_YES -->
<g id="edge13" class="edge"><title>LOCAL_WANT_NO_OPPOSITE&#45;&gt;LOCAL_WANT_YES</title>
<path fill="none" stroke="purple" d="M339.711,-123.026C342.974,-161.065 347.944,-255.469 326,-330 325.119,-332.992 323.939,-336.002 322.59,-338.935"/>
<polygon fill="purple" stroke="purple" points="319.424,-337.436 317.869,-347.916 325.62,-340.694 319.424,-337.436"/>
<text text-anchor="middle" x="371" y="-231.8" font-family="Times New Roman,serif" font-size="14.00">RecvDont</text>
</g>
<!-- LOCAL_WANT_NO_OPPOSITE&#45;&gt;LOCAL_Error -->
<g id="edge12" class="edge"><title>LOCAL_WANT_NO_OPPOSITE&#45;&gt;LOCAL_Error</title>
<path fill="none" stroke="blue" stroke-dasharray="5,2" d="M360.918,-87.2067C378.863,-74.0574 403.985,-55.6492 423.608,-41.2703"/>
<polygon fill="blue" stroke="blue" points="425.919,-43.9155 431.917,-35.1817 421.782,-38.2691 425.919,-43.9155"/>
<text text-anchor="middle" x="426.5" y="-57.8" font-family="Times New Roman,serif" font-size="14.00">RecvDo</text>
</g>
<!-- LOCAL_YES&#45;&gt;LOCAL_NO -->
<g id="edge17" class="edge"><title>LOCAL_YES&#45;&gt;LOCAL_NO</title>
<path fill="none" stroke="purple" d="M552.588,-296.86C538.524,-324.039 508.277,-378.393 473,-417 468.894,-421.493 464.164,-425.848 459.346,-429.871"/>
<polygon fill="purple" stroke="purple" points="456.909,-427.337 451.251,-436.294 461.26,-432.82 456.909,-427.337"/>
<text text-anchor="middle" x="552" y="-362.3" font-family="Times New Roman,serif" font-size="14.00">RecvDont</text>
</g>
<!-- LOCAL_YES&#45;&gt;LOCAL_WANT_NO -->
<g id="edge15" class="edge"><title>LOCAL_YES&#45;&gt;LOCAL_WANT_NO</title>
<path fill="none" stroke="red" d="M528.997,-263.377C518.062,-257.716 506.062,-250.731 496,-243 486.453,-235.664 477.118,-226.328 469.317,-217.714"/>
<polygon fill="red" stroke="red" points="471.848,-215.292 462.622,-210.085 466.587,-219.909 471.848,-215.292"/>
<text text-anchor="middle" x="526.5" y="-231.8" font-family="Times New Roman,serif" font-size="14.00">SendWont</text>
</g>
<!-- LOCAL_YES&#45;&gt;LOCAL_Ignore -->
<g id="edge14" class="edge"><title>LOCAL_YES&#45;&gt;LOCAL_Ignore</title>
<path fill="none" stroke="green" stroke-dasharray="5,2" d="M572.254,-260.998C580.228,-250.157 591.823,-236.582 605,-228 619.302,-218.685 636.25,-211.707 652.542,-206.537"/>
<polygon fill="green" stroke="green" points="653.988,-209.758 662.571,-203.547 651.988,-203.05 653.988,-209.758"/>
<text text-anchor="middle" x="631" y="-231.8" font-family="Times New Roman,serif" font-size="14.00">SendWill</text>
</g>
<!-- LOCAL_YES&#45;&gt;LOCAL_Ignore -->
<g id="edge16" class="edge"><title>LOCAL_YES&#45;&gt;LOCAL_Ignore</title>
<path fill="none" stroke="blue" stroke-dasharray="5,2" d="M604.507,-265.762C621.487,-260.07 640.741,-252.446 657,-243 669.582,-235.69 682.085,-225.609 692.32,-216.412"/>
<polygon fill="blue" stroke="blue" points="694.706,-218.973 699.67,-209.613 689.953,-213.835 694.706,-218.973"/>
<text text-anchor="middle" x="701.5" y="-231.8" font-family="Times New Roman,serif" font-size="14.00">RecvDo</text>
</g>
<!-- LOCAL_WANT_YES&#45;&gt;LOCAL_NO -->
<g id="edge21" class="edge"><title>LOCAL_WANT_YES&#45;&gt;LOCAL_NO</title>
<path fill="none" stroke="purple" d="M270.842,-382.738C254.915,-392.054 241.706,-404.457 252,-417 265.798,-433.812 316.899,-442.697 360.509,-447.3"/>
<polygon fill="purple" stroke="purple" points="360.244,-450.791 370.542,-448.3 360.938,-443.826 360.244,-450.791"/>
<text text-anchor="middle" x="281" y="-405.8" font-family="Times New Roman,serif" font-size="14.00">RecvDont</text>
</g>
<!-- LOCAL_WANT_YES&#45;&gt;LOCAL_YES -->
<g id="edge20" class="edge"><title>LOCAL_WANT_YES&#45;&gt;LOCAL_YES</title>
<path fill="none" stroke="blue" d="M329.167,-348.314C345.456,-337.325 368.159,-323.456 390,-315 423.021,-302.215 461.526,-293.809 493.627,-288.449"/>
<polygon fill="blue" stroke="blue" points="494.491,-291.855 503.81,-286.813 493.381,-284.943 494.491,-291.855"/>
<text text-anchor="middle" x="413.5" y="-318.8" font-family="Times New Roman,serif" font-size="14.00">RecvDo</text>
</g>
<!-- LOCAL_WANT_YES_OPPOSITE -->
<g id="node7" class="node"><title>LOCAL_WANT_YES_OPPOSITE</title>
<ellipse fill="none" stroke="black" cx="172" cy="-279" rx="143.775" ry="18"/>
<text text-anchor="middle" x="172" y="-275.3" font-family="Times New Roman,serif" font-size="14.00">LOCAL_WANT_YES_OPPOSITE</text>
</g>
<!-- LOCAL_WANT_YES&#45;&gt;LOCAL_WANT_YES_OPPOSITE -->
<g id="edge19" class="edge"><title>LOCAL_WANT_YES&#45;&gt;LOCAL_WANT_YES_OPPOSITE</title>
<path fill="none" stroke="red" d="M232.542,-354.511C216.621,-349.306 200.985,-341.549 189,-330 182.71,-323.939 178.748,-315.465 176.251,-307.213"/>
<polygon fill="red" stroke="red" points="179.637,-306.326 173.875,-297.435 172.835,-307.979 179.637,-306.326"/>
<text text-anchor="middle" x="219.5" y="-318.8" font-family="Times New Roman,serif" font-size="14.00">SendWont</text>
</g>
<!-- LOCAL_WANT_YES&#45;&gt;LOCAL_Error -->
<g id="edge18" class="edge"><title>LOCAL_WANT_YES&#45;&gt;LOCAL_Error</title>
<path fill="none" stroke="green" stroke-dasharray="5,2" d="M239.146,-353.113C166.824,-339.562 56.7865,-316.733 19,-297 8.95599,-291.755 0,-291.331 0,-280 0,-280 0,-280 0,-104 0,-65.5482 254.858,-37 382.674,-25.1004"/>
<polygon fill="green" stroke="green" points="383.135,-28.5729 392.772,-24.1704 382.493,-21.6024 383.135,-28.5729"/>
<text text-anchor="middle" x="26" y="-188.3" font-family="Times New Roman,serif" font-size="14.00">SendWill</text>
</g>
<!-- LOCAL_WANT_YES_OPPOSITE&#45;&gt;LOCAL_NO -->
<g id="edge25" class="edge"><title>LOCAL_WANT_YES_OPPOSITE&#45;&gt;LOCAL_NO</title>
<path fill="none" stroke="purple" d="M159.342,-297.069C144.698,-319.082 124.898,-357.663 144,-384 169.267,-418.837 285.915,-437.374 361.634,-445.909"/>
<polygon fill="purple" stroke="purple" points="361.712,-449.438 372.033,-447.048 362.474,-442.48 361.712,-449.438"/>
<text text-anchor="middle" x="173" y="-362.3" font-family="Times New Roman,serif" font-size="14.00">RecvDont</text>
</g>
<!-- LOCAL_WANT_YES_OPPOSITE&#45;&gt;LOCAL_WANT_NO -->
<g id="edge24" class="edge"><title>LOCAL_WANT_YES_OPPOSITE&#45;&gt;LOCAL_WANT_NO</title>
<path fill="none" stroke="blue" d="M198.879,-261.109C217.391,-250.174 242.904,-236.449 267,-228 297.96,-217.144 333.131,-209.384 364.246,-203.975"/>
<polygon fill="blue" stroke="blue" points="364.915,-207.412 374.195,-202.301 363.753,-200.509 364.915,-207.412"/>
<text text-anchor="middle" x="290.5" y="-231.8" font-family="Times New Roman,serif" font-size="14.00">RecvDo</text>
</g>
<!-- LOCAL_WANT_YES_OPPOSITE&#45;&gt;LOCAL_WANT_YES -->
<g id="edge22" class="edge"><title>LOCAL_WANT_YES_OPPOSITE&#45;&gt;LOCAL_WANT_YES</title>
<path fill="none" stroke="green" d="M214.528,-296.254C226.4,-301.537 239.041,-307.893 250,-315 261.562,-322.498 273.127,-332.332 282.719,-341.293"/>
<polygon fill="green" stroke="green" points="280.312,-343.834 289.951,-348.231 285.158,-338.783 280.312,-343.834"/>
<text text-anchor="middle" x="296" y="-318.8" font-family="Times New Roman,serif" font-size="14.00">SendWill</text>
</g>
<!-- LOCAL_WANT_YES_OPPOSITE&#45;&gt;LOCAL_Error -->
<g id="edge23" class="edge"><title>LOCAL_WANT_YES_OPPOSITE&#45;&gt;LOCAL_Error</title>
<path fill="none" stroke="red" stroke-dasharray="5,2" d="M167.651,-260.766C159.493,-224.021 146.325,-137.237 189,-87 214.206,-57.3277 315.802,-37.7726 385.615,-27.5452"/>
<polygon fill="red" stroke="red" points="386.269,-30.9873 395.671,-26.1038 385.276,-24.0581 386.269,-30.9873"/>
<text text-anchor="middle" x="194.5" y="-144.8" font-family="Times New Roman,serif" font-size="14.00">SendWont</text>
</g>
<!-- REMOTE_NEVER -->
<g id="node10" class="node"><title>REMOTE_NEVER</title>
<ellipse fill="none" stroke="black" cx="1325" cy="-540" rx="83.3857" ry="18"/>
<text text-anchor="middle" x="1325" y="-536.3" font-family="Times New Roman,serif" font-size="14.00">REMOTE_NEVER</text>
</g>
<!-- REMOTE_NO -->
<g id="node11" class="node"><title>REMOTE_NO</title>
<ellipse fill="none" stroke="black" cx="1325" cy="-453" rx="66.0889" ry="18"/>
<text text-anchor="middle" x="1325" y="-449.3" font-family="Times New Roman,serif" font-size="14.00">REMOTE_NO</text>
</g>
<!-- REMOTE_NEVER&#45;&gt;REMOTE_NO -->
<g id="edge26" class="edge"><title>REMOTE_NEVER&#45;&gt;REMOTE_NO</title>
<path fill="none" stroke="black" d="M1325,-521.799C1325,-510.163 1325,-494.548 1325,-481.237"/>
<polygon fill="black" stroke="black" points="1328.5,-481.175 1325,-471.175 1321.5,-481.175 1328.5,-481.175"/>
<text text-anchor="middle" x="1344" y="-492.8" font-family="Times New Roman,serif" font-size="14.00">Enable</text>
</g>
<!-- REMOTE_WANT_YES -->
<g id="node15" class="node"><title>REMOTE_WANT_YES</title>
<ellipse fill="none" stroke="black" cx="1299" cy="-366" rx="102.882" ry="18"/>
<text text-anchor="middle" x="1299" y="-362.3" font-family="Times New Roman,serif" font-size="14.00">REMOTE_WANT_YES</text>
</g>
<!-- REMOTE_NO&#45;&gt;REMOTE_WANT_YES -->
<g id="edge27" class="edge"><title>REMOTE_NO&#45;&gt;REMOTE_WANT_YES</title>
<path fill="none" stroke="green" d="M1264.76,-445.295C1247.52,-440.264 1230.56,-431.653 1220,-417 1210.55,-403.89 1220.4,-393.415 1235.97,-385.507"/>
<polygon fill="green" stroke="green" points="1237.44,-388.682 1245.12,-381.378 1234.56,-382.301 1237.44,-388.682"/>
<text text-anchor="middle" x="1243" y="-405.8" font-family="Times New Roman,serif" font-size="14.00">SendDo</text>
</g>
<!-- REMOTE_NO&#45;&gt;REMOTE_WANT_YES -->
<g id="edge29" class="edge"><title>REMOTE_NO&#45;&gt;REMOTE_WANT_YES</title>
<path fill="none" stroke="blue" d="M1302.69,-435.693C1297.17,-430.41 1291.99,-424.066 1289,-417 1285.93,-409.742 1286.21,-401.488 1287.87,-393.807"/>
<polygon fill="blue" stroke="blue" points="1291.24,-394.752 1290.69,-384.172 1284.52,-392.785 1291.24,-394.752"/>
<text text-anchor="middle" x="1315" y="-405.8" font-family="Times New Roman,serif" font-size="14.00">RecvWill</text>
</g>
<!-- REMOTE_Ignore -->
<g id="node17" class="node"><title>REMOTE_Ignore</title>
<ellipse fill="none" stroke="black" cx="1688" cy="-192" rx="76.8869" ry="18"/>
<text text-anchor="middle" x="1688" y="-188.3" font-family="Times New Roman,serif" font-size="14.00">REMOTE_Ignore</text>
</g>
<!-- REMOTE_NO&#45;&gt;REMOTE_Ignore -->
<g id="edge30" class="edge"><title>REMOTE_NO&#45;&gt;REMOTE_Ignore</title>
<path fill="none" stroke="purple" stroke-dasharray="5,2" d="M1388.1,-447.223C1445.58,-440.399 1530.88,-423.884 1594,-384 1636.43,-357.189 1644.17,-342.196 1666,-297 1677.81,-272.547 1683.31,-241.847 1685.85,-220.158"/>
<polygon fill="purple" stroke="purple" points="1689.36,-220.319 1686.91,-210.011 1682.39,-219.597 1689.36,-220.319"/>
<text text-anchor="middle" x="1688.5" y="-318.8" font-family="Times New Roman,serif" font-size="14.00">RecvWont</text>
</g>
<!-- REMOTE_Error -->
<g id="node18" class="node"><title>REMOTE_Error</title>
<ellipse fill="none" stroke="black" cx="1290" cy="-18" rx="72.2875" ry="18"/>
<text text-anchor="middle" x="1290" y="-14.3" font-family="Times New Roman,serif" font-size="14.00">REMOTE_Error</text>
</g>
<!-- REMOTE_NO&#45;&gt;REMOTE_Error -->
<g id="edge28" class="edge"><title>REMOTE_NO&#45;&gt;REMOTE_Error</title>
<path fill="none" stroke="red" stroke-dasharray="5,2" d="M1258.75,-452.329C1138.81,-451.124 898,-439.657 898,-367 898,-367 898,-367 898,-104 898,-41.1348 1092.99,-24.664 1207.92,-20.416"/>
<polygon fill="red" stroke="red" points="1208.23,-23.9075 1218.1,-20.0638 1207.99,-16.9117 1208.23,-23.9075"/>
<text text-anchor="middle" x="926.5" y="-231.8" font-family="Times New Roman,serif" font-size="14.00">SendDont</text>
</g>
<!-- REMOTE_WANT_NO -->
<g id="node12" class="node"><title>REMOTE_WANT_NO</title>
<ellipse fill="none" stroke="black" cx="1330" cy="-192" rx="98.5829" ry="18"/>
<text text-anchor="middle" x="1330" y="-188.3" font-family="Times New Roman,serif" font-size="14.00">REMOTE_WANT_NO</text>
</g>
<!-- REMOTE_WANT_NO&#45;&gt;REMOTE_NO -->
<g id="edge34" class="edge"><title>REMOTE_WANT_NO&#45;&gt;REMOTE_NO</title>
<path fill="none" stroke="purple" d="M1268.2,-206.083C1238.23,-215.874 1204.91,-232.646 1187,-261 1149.46,-320.424 1155.11,-377.127 1213,-417 1227.52,-426.998 1245.01,-434.236 1261.82,-439.438"/>
<polygon fill="purple" stroke="purple" points="1261.02,-442.852 1271.6,-442.27 1262.97,-436.128 1261.02,-442.852"/>
<text text-anchor="middle" x="1195.5" y="-318.8" font-family="Times New Roman,serif" font-size="14.00">RecvWont</text>
</g>
<!-- REMOTE_WANT_NO_OPPOSITE -->
<g id="node13" class="node"><title>REMOTE_WANT_NO_OPPOSITE</title>
<ellipse fill="none" stroke="black" cx="1146" cy="-105" rx="147.574" ry="18"/>
<text text-anchor="middle" x="1146" y="-101.3" font-family="Times New Roman,serif" font-size="14.00">REMOTE_WANT_NO_OPPOSITE</text>
</g>
<!-- REMOTE_WANT_NO&#45;&gt;REMOTE_WANT_NO_OPPOSITE -->
<g id="edge31" class="edge"><title>REMOTE_WANT_NO&#45;&gt;REMOTE_WANT_NO_OPPOSITE</title>
<path fill="none" stroke="green" d="M1295.39,-175.012C1265.83,-161.356 1223.1,-141.619 1190.91,-126.747"/>
<polygon fill="green" stroke="green" points="1192.25,-123.512 1181.71,-122.496 1189.32,-129.867 1192.25,-123.512"/>
<text text-anchor="middle" x="1273" y="-144.8" font-family="Times New Roman,serif" font-size="14.00">SendDo</text>
</g>
<!-- REMOTE_WANT_NO&#45;&gt;REMOTE_Error -->
<g id="edge32" class="edge"><title>REMOTE_WANT_NO&#45;&gt;REMOTE_Error</title>
<path fill="none" stroke="red" stroke-dasharray="5,2" d="M1328.69,-173.757C1326.35,-147.417 1320.36,-95.8118 1307,-54 1306.06,-51.0702 1304.92,-48.0753 1303.68,-45.1314"/>
<polygon fill="red" stroke="red" points="1306.85,-43.6553 1299.49,-36.042 1300.5,-46.5884 1306.85,-43.6553"/>
<text text-anchor="middle" x="1351.5" y="-101.3" font-family="Times New Roman,serif" font-size="14.00">SendDont</text>
</g>
<!-- REMOTE_WANT_NO&#45;&gt;REMOTE_Error -->
<g id="edge33" class="edge"><title>REMOTE_WANT_NO&#45;&gt;REMOTE_Error</title>
<path fill="none" stroke="blue" stroke-dasharray="5,2" d="M1349.51,-174.103C1370.76,-153.555 1399.73,-117.8 1384,-87 1373.32,-66.0955 1352.88,-50.1315 1333.79,-38.9421"/>
<polygon fill="blue" stroke="blue" points="1335.3,-35.7789 1324.86,-33.9845 1331.9,-41.8988 1335.3,-35.7789"/>
<text text-anchor="middle" x="1415" y="-101.3" font-family="Times New Roman,serif" font-size="14.00">RecvWill</text>
</g>
<!-- REMOTE_WANT_NO_OPPOSITE&#45;&gt;REMOTE_WANT_NO -->
<g id="edge36" class="edge"><title>REMOTE_WANT_NO_OPPOSITE&#45;&gt;REMOTE_WANT_NO</title>
<path fill="none" stroke="red" d="M1148.65,-123.258C1151.24,-134.207 1156.28,-147.806 1166,-156 1178,-166.117 1209,-173.921 1240.85,-179.566"/>
<polygon fill="red" stroke="red" points="1240.3,-183.022 1250.75,-181.248 1241.47,-176.121 1240.3,-183.022"/>
<text text-anchor="middle" x="1194.5" y="-144.8" font-family="Times New Roman,serif" font-size="14.00">SendDont</text>
</g>
<!-- REMOTE_WANT_NO_OPPOSITE&#45;&gt;REMOTE_WANT_YES -->
<g id="edge38" class="edge"><title>REMOTE_WANT_NO_OPPOSITE&#45;&gt;REMOTE_WANT_YES</title>
<path fill="none" stroke="purple" d="M1140.54,-123.018C1128.26,-164.935 1103.77,-273.822 1160,-330 1170.9,-340.893 1184.67,-348.563 1199.27,-353.933"/>
<polygon fill="purple" stroke="purple" points="1198.37,-357.323 1208.96,-357.141 1200.57,-350.677 1198.37,-357.323"/>
<text text-anchor="middle" x="1156.5" y="-231.8" font-family="Times New Roman,serif" font-size="14.00">RecvWont</text>
</g>
<!-- REMOTE_WANT_NO_OPPOSITE&#45;&gt;REMOTE_Error -->
<g id="edge35" class="edge"><title>REMOTE_WANT_NO_OPPOSITE&#45;&gt;REMOTE_Error</title>
<path fill="none" stroke="green" d="M1154.92,-87.0045C1161.39,-76.1665 1171.09,-62.5921 1183,-54 1195.68,-44.8546 1210.88,-38.0073 1225.79,-32.915"/>
<polygon fill="green" stroke="green" points="1227.05,-36.1867 1235.51,-29.8154 1224.92,-29.5172 1227.05,-36.1867"/>
<text text-anchor="middle" x="1206" y="-57.8" font-family="Times New Roman,serif" font-size="14.00">SendDo</text>
</g>
<!-- REMOTE_WANT_NO_OPPOSITE&#45;&gt;REMOTE_Error -->
<g id="edge37" class="edge"><title>REMOTE_WANT_NO_OPPOSITE&#45;&gt;REMOTE_Error</title>
<path fill="none" stroke="blue" stroke-dasharray="5,2" d="M1191.1,-87.7487C1203.73,-82.4663 1217.22,-76.109 1229,-69 1241.61,-61.3904 1254.4,-51.3468 1264.98,-42.2586"/>
<polygon fill="blue" stroke="blue" points="1267.41,-44.7838 1272.61,-35.5512 1262.79,-39.5276 1267.41,-44.7838"/>
<text text-anchor="middle" x="1277" y="-57.8" font-family="Times New Roman,serif" font-size="14.00">RecvWill</text>
</g>
<!-- REMOTE_YES -->
<g id="node14" class="node"><title>REMOTE_YES</title>
<ellipse fill="none" stroke="black" cx="1587" cy="-279" rx="70.3881" ry="18"/>
<text text-anchor="middle" x="1587" y="-275.3" font-family="Times New Roman,serif" font-size="14.00">REMOTE_YES</text>
</g>
<!-- REMOTE_YES&#45;&gt;REMOTE_NO -->
<g id="edge42" class="edge"><title>REMOTE_YES&#45;&gt;REMOTE_NO</title>
<path fill="none" stroke="purple" d="M1574.31,-296.745C1557.02,-318.752 1524.27,-357.691 1490,-384 1465.24,-403.007 1456.65,-404.605 1428,-417 1411.92,-423.956 1393.98,-430.466 1377.62,-435.94"/>
<polygon fill="purple" stroke="purple" points="1376.09,-432.761 1367.68,-439.209 1378.27,-439.411 1376.09,-432.761"/>
<text text-anchor="middle" x="1559.5" y="-362.3" font-family="Times New Roman,serif" font-size="14.00">RecvWont</text>
</g>
<!-- REMOTE_YES&#45;&gt;REMOTE_WANT_NO -->
<g id="edge40" class="edge"><title>REMOTE_YES&#45;&gt;REMOTE_WANT_NO</title>
<path fill="none" stroke="red" d="M1545.71,-264.343C1502.17,-249.943 1433.34,-227.177 1385.17,-211.246"/>
<polygon fill="red" stroke="red" points="1386.11,-207.873 1375.52,-208.056 1383.92,-214.519 1386.11,-207.873"/>
<text text-anchor="middle" x="1502.5" y="-231.8" font-family="Times New Roman,serif" font-size="14.00">SendDont</text>
</g>
<!-- REMOTE_YES&#45;&gt;REMOTE_Ignore -->
<g id="edge41" class="edge"><title>REMOTE_YES&#45;&gt;REMOTE_Ignore</title>
<path fill="none" stroke="blue" stroke-dasharray="5,2" d="M1595.27,-261.099C1601.07,-250.572 1609.63,-237.309 1620,-228 1626.53,-222.137 1634.23,-216.967 1642.05,-212.525"/>
<polygon fill="blue" stroke="blue" points="1643.7,-215.612 1650.88,-207.819 1640.4,-209.435 1643.7,-215.612"/>
<text text-anchor="middle" x="1646" y="-231.8" font-family="Times New Roman,serif" font-size="14.00">RecvWill</text>
</g>
<!-- REMOTE_YES&#45;&gt;REMOTE_Error -->
<g id="edge39" class="edge"><title>REMOTE_YES&#45;&gt;REMOTE_Error</title>
<path fill="none" stroke="green" stroke-dasharray="5,2" d="M1584.71,-260.957C1580.33,-233.521 1568.74,-178.814 1542,-141 1505.4,-89.2505 1486.06,-81.6048 1429,-54 1407.34,-43.5205 1382.21,-35.9642 1359.33,-30.6179"/>
<polygon fill="green" stroke="green" points="1359.86,-27.1497 1349.33,-28.3873 1358.33,-33.9816 1359.86,-27.1497"/>
<text text-anchor="middle" x="1574" y="-144.8" font-family="Times New Roman,serif" font-size="14.00">SendDo</text>
</g>
<!-- REMOTE_WANT_YES&#45;&gt;REMOTE_NO -->
<g id="edge46" class="edge"><title>REMOTE_WANT_YES&#45;&gt;REMOTE_NO</title>
<path fill="none" stroke="purple" d="M1325.82,-383.39C1331.93,-388.53 1337.62,-394.78 1341,-402 1344.48,-409.428 1343.53,-417.813 1340.85,-425.564"/>
<polygon fill="purple" stroke="purple" points="1337.55,-424.362 1336.71,-434.924 1343.95,-427.191 1337.55,-424.362"/>
<text text-anchor="middle" x="1374.5" y="-405.8" font-family="Times New Roman,serif" font-size="14.00">RecvWont</text>
</g>
<!-- REMOTE_WANT_YES&#45;&gt;REMOTE_YES -->
<g id="edge45" class="edge"><title>REMOTE_WANT_YES&#45;&gt;REMOTE_YES</title>
<path fill="none" stroke="blue" d="M1349.17,-350.194C1400.49,-335.046 1479.99,-311.584 1532.75,-296.012"/>
<polygon fill="blue" stroke="blue" points="1534,-299.291 1542.6,-293.104 1532.02,-292.578 1534,-299.291"/>
<text text-anchor="middle" x="1487" y="-318.8" font-family="Times New Roman,serif" font-size="14.00">RecvWill</text>
</g>
<!-- REMOTE_WANT_YES_OPPOSITE -->
<g id="node16" class="node"><title>REMOTE_WANT_YES_OPPOSITE</title>
<ellipse fill="none" stroke="black" cx="1347" cy="-279" rx="151.373" ry="18"/>
<text text-anchor="middle" x="1347" y="-275.3" font-family="Times New Roman,serif" font-size="14.00">REMOTE_WANT_YES_OPPOSITE</text>
</g>
<!-- REMOTE_WANT_YES&#45;&gt;REMOTE_WANT_YES_OPPOSITE -->
<g id="edge44" class="edge"><title>REMOTE_WANT_YES&#45;&gt;REMOTE_WANT_YES_OPPOSITE</title>
<path fill="none" stroke="red" d="M1287.33,-347.965C1281.99,-337.889 1278.03,-325.154 1284,-315 1286.82,-310.215 1290.55,-306.037 1294.8,-302.399"/>
<polygon fill="red" stroke="red" points="1296.93,-305.171 1302.91,-296.421 1292.78,-299.536 1296.93,-305.171"/>
<text text-anchor="middle" x="1312.5" y="-318.8" font-family="Times New Roman,serif" font-size="14.00">SendDont</text>
</g>
<!-- REMOTE_WANT_YES&#45;&gt;REMOTE_Error -->
<g id="edge43" class="edge"><title>REMOTE_WANT_YES&#45;&gt;REMOTE_Error</title>
<path fill="none" stroke="green" stroke-dasharray="5,2" d="M1204.28,-358.905C1107.09,-349.976 970,-328.743 970,-280 970,-280 970,-280 970,-104 970,-54.2929 1116.05,-32.9533 1210.81,-24.339"/>
<polygon fill="green" stroke="green" points="1211.3,-27.8095 1220.96,-23.4473 1210.69,-20.8364 1211.3,-27.8095"/>
<text text-anchor="middle" x="993" y="-188.3" font-family="Times New Roman,serif" font-size="14.00">SendDo</text>
</g>
<!-- REMOTE_WANT_YES_OPPOSITE&#45;&gt;REMOTE_NO -->
<g id="edge50" class="edge"><title>REMOTE_WANT_YES_OPPOSITE&#45;&gt;REMOTE_NO</title>
<path fill="none" stroke="purple" d="M1376.8,-296.8C1384.09,-301.937 1391.4,-308.083 1397,-315 1425.72,-350.474 1435.46,-379.804 1409,-417 1402.89,-425.585 1394.27,-432.073 1384.85,-436.973"/>
<polygon fill="purple" stroke="purple" points="1383.26,-433.85 1375.64,-441.201 1386.18,-440.212 1383.26,-433.85"/>
<text text-anchor="middle" x="1455.5" y="-362.3" font-family="Times New Roman,serif" font-size="14.00">RecvWont</text>
</g>
<!-- REMOTE_WANT_YES_OPPOSITE&#45;&gt;REMOTE_WANT_NO -->
<g id="edge49" class="edge"><title>REMOTE_WANT_YES_OPPOSITE&#45;&gt;REMOTE_WANT_NO</title>
<path fill="none" stroke="blue" d="M1343.56,-260.799C1341.23,-249.163 1338.11,-233.548 1335.45,-220.237"/>
<polygon fill="blue" stroke="blue" points="1338.83,-219.295 1333.44,-210.175 1331.96,-220.668 1338.83,-219.295"/>
<text text-anchor="middle" x="1366" y="-231.8" font-family="Times New Roman,serif" font-size="14.00">RecvWill</text>
</g>
<!-- REMOTE_WANT_YES_OPPOSITE&#45;&gt;REMOTE_WANT_YES -->
<g id="edge47" class="edge"><title>REMOTE_WANT_YES_OPPOSITE&#45;&gt;REMOTE_WANT_YES</title>
<path fill="none" stroke="green" d="M1348.01,-297.156C1347.89,-307.276 1346.43,-320.013 1341,-330 1338.8,-334.05 1335.92,-337.823 1332.7,-341.278"/>
<polygon fill="green" stroke="green" points="1330.12,-338.909 1325.25,-348.319 1334.92,-343.999 1330.12,-338.909"/>
<text text-anchor="middle" x="1370" y="-318.8" font-family="Times New Roman,serif" font-size="14.00">SendDo</text>
</g>
<!-- REMOTE_WANT_YES_OPPOSITE&#45;&gt;REMOTE_Error -->
<g id="edge48" class="edge"><title>REMOTE_WANT_YES_OPPOSITE&#45;&gt;REMOTE_Error</title>
<path fill="none" stroke="red" stroke-dasharray="5,2" d="M1438.29,-264.632C1461.43,-259.3 1481.8,-252.194 1489,-243 1493.11,-237.752 1490,-234.591 1489,-228 1479.11,-163.102 1487.68,-136.878 1445,-87 1421.63,-59.6847 1385.19,-42.9469 1353.52,-32.9151"/>
<polygon fill="red" stroke="red" points="1354.45,-29.5393 1343.86,-30.0128 1352.43,-36.243 1354.45,-29.5393"/>
<text text-anchor="middle" x="1509.5" y="-144.8" font-family="Times New Roman,serif" font-size="14.00">SendDont</text>
</g>
</g>
</svg>
